<svg xmlns="http://www.w3.org/2000/svg" viewBox="0 0 480.003 480.003" style="enable-background:new 0 0 480.003 480.003" xml:space="preserve">
    <path style="fill:#fdd4d8" d="M16.003 200.001v248h448v-248z" />
    <path style="fill:#fcbcc2" d="M192.003 216.001v216h96v-216z" />
    <path style="fill:#f97985" d="M456.003 432.001h-432c-13.232 0-24 10.768-24 24v24h480v-24c0-13.232-10.768-24-24-24zM280.003 376.001h8v-40h-96v40h8zM479.595 189.473l-16-48a8 8 0 0 0-7.592-5.472h-432a8 8 0 0 0-7.592 5.472l-16 48c-.816 2.44-.4 5.128 1.104 7.208s3.92 3.32 6.488 3.32h464c2.568 0 4.984-1.232 6.488-3.32s1.912-4.776 1.104-7.208z" />
    <path style="fill:#f85766" d="M456.003.001h-432c-13.232 0-24 10.768-24 24v24h480v-24c0-13.232-10.768-24-24-24zM.003 104.001v24c0 13.232 10.768 24 24 24h432c13.232 0 24-10.768 24-24v-24h-480z" />
    <path style="fill:#f97985" d="M.003 40.001h480v72h-480z" />
    <path style="fill:#fcbcc2" d="M48.003 216.001h128v160h-128z" />
    <path style="fill:#f97985" d="M48.003 360.001h128v48h-128zM120.003 265.137v-41.136c0-4.424-3.584-8-8-8s-8 3.576-8 8v41.136c-13.76 3.576-24 15.992-24 30.864v8h64v-8c0-14.872-10.24-27.288-24-30.864z" />
    <path style="fill:#fcbcc2" d="M304.003 216.001h128v160h-128z" />
    <path style="fill:#f97985" d="M304.003 360.001h128v48h-128zM392.003 296.001c0-13.28-10.72-24-24-24s-24 10.72-24 24h48z" />
    <path style="fill:#f97985" d="M376.003 265.137v-41.136c0-4.424-3.584-8-8-8s-8 3.576-8 8v41.136c-13.76 3.576-24 15.992-24 30.864v8h64v-8c0-14.872-10.24-27.288-24-30.864z" />
    <path style="fill:#fcbcc2" d="M240.003.001c-52.936 0-96 43.064-96 96s43.064 96 96 96 96-43.064 96-96-43.064-96-96-96z" />
    <path style="fill:#f97985" d="M279.363 64.849c-3.376-18.656-19.744-32.848-39.36-32.848s-35.984 14.192-39.36 32.848c-14.112 3.336-24.64 16.04-24.64 31.152 0 14.88 10.216 27.432 24 30.984v33.016h80v-33.016c13.784-3.552 24-16.104 24-30.984 0-15.112-10.528-27.816-24.64-31.152z" />
</svg>